<?xml version="1.0" standalone="no"?>
<!DOCTYPE svg PUBLIC "-//W3C//DTD SVG 20010904//EN"
 "http://www.w3.org/TR/2001/REC-SVG-20010904/DTD/svg10.dtd">
<svg version="1.0" xmlns="http://www.w3.org/2000/svg"
 width="2500.000000pt" height="2500.000000pt" viewBox="0 0 2500.000000 2500.000000"
 preserveAspectRatio="xMidYMid meet">
<metadata>
Created by potrace 1.11, written by Peter Selinger 2001-2013
</metadata>
<g transform="translate(0.000000,2500.000000) scale(0.100000,-0.100000)"
fill="#000000" stroke="none">
<path d="M3573 24792 c-13 -2 -23 -9 -24 -15 -1 -32 0 -16994 1 -17252 2 -283
6 -341 40 -550 6 -38 13 -86 16 -105 2 -19 13 -80 24 -135 11 -55 22 -111 24
-125 3 -14 7 -36 10 -50 3 -14 11 -50 17 -80 55 -271 268 -1019 300 -1055 5
-5 9 -15 9 -22 0 -14 98 -276 131 -350 11 -23 19 -45 19 -48 0 -4 14 -36 30
-72 17 -35 30 -66 30 -68 0 -2 19 -43 41 -92 143 -307 250 -512 373 -718 39
-66 73 -124 76 -130 28 -54 285 -436 323 -479 9 -11 17 -23 17 -27 0 -4 6 -14
13 -21 7 -7 41 -51 76 -98 58 -77 235 -295 293 -362 216 -246 541 -569 753
-749 22 -19 42 -36 45 -40 3 -3 57 -47 120 -98 63 -51 124 -100 135 -109 117
-95 603 -432 624 -432 5 0 11 -3 13 -7 2 -5 57 -40 123 -79 235 -140 309 -180
570 -309 404 -199 763 -341 1250 -495 260 -82 802 -210 1070 -253 130 -21 166
-27 205 -32 25 -3 72 -10 105 -15 33 -5 87 -12 120 -16 33 -3 69 -8 80 -10 11
-2 51 -6 90 -9 38 -3 86 -7 105 -10 274 -33 771 -46 2340 -60 733 -7 3459 -7
5000 1 773 3 1828 7 2345 9 517 1 942 3 945 4 4 1 4 6901 0 7881 l0 95 -1932
0 c-1063 1 -1935 -2 -1938 -6 -3 -4 -5 -929 -5 -2056 l0 -2049 -2470 2 c-2672
2 -2925 5 -3360 39 -33 2 -96 7 -140 10 -44 3 -93 8 -110 10 -16 2 -66 6 -110
10 -44 4 -87 8 -95 10 -8 2 -51 7 -95 11 -44 3 -82 8 -85 9 -3 2 -34 6 -70 10
-36 4 -72 8 -80 10 -14 3 -77 12 -130 20 -353 53 -735 162 -1075 307 -522 222
-990 556 -1347 963 -94 107 -106 120 -158 190 -25 33 -47 62 -50 65 -3 3 -37
52 -76 110 -289 430 -482 900 -593 1445 -21 103 -25 125 -37 210 -3 28 -8 59
-10 70 -2 11 -9 67 -15 125 -6 58 -13 123 -16 145 -2 22 -6 2968 -7 6546 l-3
6506 6906 1 c3798 0 6914 1 6924 1 16 1 17 100 17 1936 0 1541 -3 1935 -12
1936 -55 2 -17688 3 -17705 1z"/>
<path d="M10319 15283 c-1 -10 -1 -3747 0 -3794 l1 -37 3845 0 3845 0 0 1919
0 1919 -3845 0 c-2115 0 -3845 -3 -3846 -7z"/>
</g>
</svg>
