<?xml version="1.0" standalone="no"?>
<!DOCTYPE svg PUBLIC "-//W3C//DTD SVG 20010904//EN"
 "http://www.w3.org/TR/2001/REC-SVG-20010904/DTD/svg10.dtd">
<svg version="1.0" xmlns="http://www.w3.org/2000/svg"
 width="1080.000000pt" height="1080.000000pt" viewBox="0 0 1080.000000 1080.000000"
 preserveAspectRatio="xMidYMid meet">
<metadata>
Created by potrace 1.11, written by Peter Selinger 2001-2013
</metadata>
<g transform="translate(0.000000,1080.000000) scale(0.100000,-0.100000)"
fill="#000000" stroke="none">
<path d="M5415 8348 c-396 -204 -1145 -590 -1665 -858 l-945 -487 -3 -658 c-2
-623 -1 -657 15 -651 10 4 351 178 758 388 407 210 1028 529 1380 710 352 182
767 395 923 476 l282 146 0 653 c0 516 -3 653 -12 653 -7 0 -337 -168 -733
-372z"/>
<path d="M7360 7827 c-355 -183 -1036 -535 -1515 -781 -478 -247 -941 -485
-1027 -530 l-158 -81 -2 -658 c-2 -361 -1 -657 1 -657 6 0 366 185 1331 682
432 223 1063 548 1403 723 l617 318 0 658 c0 363 -1 659 -2 659 -2 0 -293
-150 -648 -333z m600 -349 l0 -603 -128 -66 c-289 -151 -3121 -1609 -3124
-1609 -2 0 -2 271 -1 602 l3 602 447 231 c392 202 1449 747 2063 1064 113 58
324 167 470 243 146 75 266 137 268 138 1 0 2 -271 2 -602z"/>
<path d="M7965 6622 c-16 -10 -190 -100 -385 -200 -195 -100 -555 -284 -800
-410 l-445 -229 -3 -660 -2 -660 373 191 c205 105 583 299 840 431 l467 240 0
657 c0 362 -3 658 -7 658 -5 0 -21 -8 -38 -18z m-5 -664 l0 -603 -784 -402
c-432 -222 -787 -403 -790 -403 -3 0 -6 270 -6 600 l0 599 118 62 c244 128
1447 747 1455 748 4 0 7 -270 7 -601z"/>
<path d="M3635 5911 l-830 -427 -3 -657 c-1 -361 1 -657 5 -657 5 0 384 193
843 429 l835 430 1 655 c1 480 -2 656 -10 655 -6 0 -384 -193 -841 -428z"/>
<path d="M6035 5631 c-60 -32 -427 -221 -815 -421 -388 -199 -786 -405 -885
-456 -712 -368 -1253 -646 -1382 -712 l-153 -77 0 -657 c0 -362 1 -658 3 -658
5 0 582 296 1442 740 94 48 400 206 680 350 1050 540 1191 613 1213 626 l22
14 0 655 c0 360 -3 655 -7 655 -5 0 -57 -27 -118 -59z"/>
<path d="M7915 5076 c-44 -24 -411 -213 -815 -421 -404 -208 -771 -397 -815
-420 -44 -23 -428 -221 -852 -440 l-773 -397 0 -659 0 -660 173 89 c349 181
1144 591 1982 1022 473 243 935 481 1027 529 l168 86 0 658 c0 361 -3 657 -7
657 -5 0 -44 -20 -88 -44z m45 -638 l0 -603 -308 -157 c-296 -152 -1099 -565
-2339 -1204 -326 -168 -595 -305 -598 -305 -3 1 -6 270 -6 599 l0 597 173 90
c95 50 596 309 1113 575 517 267 1167 603 1445 746 278 144 508 262 513 263 4
0 7 -270 7 -601z"/>
</g>
</svg>
